<svg xmlns="http://www.w3.org/2000/svg" width="24" height="24" viewBox="0 0 24 24">
  <path id="haz-de-sonrisa" d="M10.032,12a1,1,0,0,1-1-1c0-1.054-.682-2-1-2s-1,.946-1,2a1,1,0,0,1-2.006,0c0-1.892,1.236-4,3.01-4s3.01,2.108,3.01,4A1,1,0,0,1,10.032,12Zm9.029-1c0-1.892-1.236-4-3.01-4s-3.01,2.108-3.01,4a1,1,0,0,0,2.006,0c0-1.054.682-2,1-2s1,.946,1,2a1,1,0,0,0,2.006,0Zm5.016,1A12.033,12.033,0,0,0,12.039,0c-15.952.6-15.945,23.4,0,24A12.033,12.033,0,0,0,24.078,12Zm-2.006,0A10.027,10.027,0,0,1,12.039,22c-13.292-.5-13.287-19.5,0-20A10.027,10.027,0,0,1,22.071,12Zm-4.348,3.746a1,1,0,0,0-1.334-1.493,6.4,6.4,0,0,1-8.7,0,1,1,0,1,0-1.336,1.492A9.5,9.5,0,0,0,12.039,18a9.5,9.5,0,0,0,5.684-2.254Z" transform="translate(-0.078)" fill="#bdd684"/>
</svg>
